<svg width="801" height="161" viewBox="0 0 801 161" fill="none" xmlns="http://www.w3.org/2000/svg">
<path d="M12.7724 11.211L23.3805 25.9344C24.0997 26.9423 25.3942 27.3023 26.509 26.7623C29.206 25.4304 34.8876 23.1985 43.1943 22.2265C45.244 21.9745 46.2149 19.5626 44.8125 18.0147C42.0436 14.8828 36.9733 10.743 28.6666 8.76307C22.0859 7.14314 17.4831 6.99915 14.5704 7.21514C12.6286 7.35913 11.6217 9.62704 12.7724 11.211V11.211Z" fill="#2F332C"/>
<path d="M135.215 67.1887C135.431 73.4164 129.893 75.0363 122.305 74.3524H122.09C121.622 74.2804 121.191 74.2084 120.723 74.1724C120.543 74.1724 120.435 74.1724 120.328 74.1004C108.677 72.7684 95.4435 72.7684 82.8217 76.0083C56.7149 82.74 35.8583 98.7234 27.228 106.103C24.8187 108.155 21.1868 107.831 19.173 105.383L5.5443 88.6438C3.45864 86.0519 3.96208 82.344 6.69501 80.4361C16.6918 73.4884 40.4971 58.297 64.7699 53.2212C68.1142 52.5013 71.7101 52.1773 75.4499 52.0693C76.9602 55.2371 80.5202 56.8571 83.8285 55.8131C87.4964 54.6252 89.4742 50.6293 88.2516 46.8855C87.029 43.1056 83.1093 41.0537 79.4415 42.2417C77.4996 42.8536 76.0612 44.2936 75.3061 46.0575C73.1845 45.9135 71.1707 45.8775 69.2289 45.9495C51.6806 46.4895 30.9678 57.973 22.4454 63.1928C20.1439 64.5968 17.1952 63.9488 15.6849 61.7169L7.05461 49.1894C5.3645 46.7055 6.19158 43.2856 8.88855 41.9177C16.3682 38.0298 32.0466 31.0821 53.6584 27.7343C71.854 24.9624 95.1558 33.422 106.303 38.1738C106.303 38.1738 106.411 38.2458 106.627 38.3178C109.576 39.3978 132.086 48.1814 134.927 64.5248C135.107 65.4247 135.215 66.3247 135.215 67.2247V67.1887Z" fill="#2F332C"/>
<path d="M14.7502 133.318C12.8083 130.942 13.132 127.414 15.4693 125.398C24.8189 117.551 47.6533 98.9753 63.4396 91.1997C71.5305 87.2038 79.7293 84.4679 84.2602 83.1C86.3818 82.452 88.6833 83.1 90.1576 84.8279L99.7948 96.0595C102.276 98.9753 101.233 103.439 97.7451 104.915C90.697 107.939 79.0461 114.383 64.5184 127.558C50.3862 140.41 42.2233 147.969 37.8003 152.037C35.427 154.269 31.6512 153.981 29.6015 151.461L14.7142 133.282L14.7502 133.318Z" fill="#2F332C"/>
<path d="M418.541 127.09H407.214V124.894C407.214 115.499 407.322 106.103 407.178 96.7435C407.106 93.4316 406.711 90.0477 406.027 86.8079C405.164 82.74 402.144 80.5441 397.936 80.3281C390.025 79.9321 384.488 83.928 382.15 92.2076C381.215 95.5195 380.712 99.0114 380.604 102.467C380.388 110.603 380.532 118.739 380.532 127.198C376.936 127.198 373.412 127.27 369.924 127.126C369.564 127.126 368.989 125.902 368.989 125.218C368.917 118.523 368.989 111.827 368.953 105.131C368.953 100.343 368.881 95.5555 368.737 90.7677C368.701 89.2918 368.342 87.7798 367.91 86.3399C366.759 82.668 363.883 80.5441 359.999 80.3641C352.699 79.9681 347.593 83.28 344.788 90.0837C342.99 94.4036 342.523 98.9754 342.487 103.583C342.415 110.747 342.415 117.911 342.487 125.038C342.487 126.73 342.091 127.378 340.293 127.306C337.237 127.162 334.18 127.27 330.872 127.27V124.966C330.872 107.975 330.908 90.9477 330.836 73.9564C330.836 71.8685 331.519 71.3285 333.425 71.4725C335.654 71.6165 337.884 71.5805 340.113 71.4725C341.875 71.3645 342.702 71.9765 342.487 73.8124C342.019 78.2042 341.588 82.596 341.156 87.0599C343.17 87.5998 343.35 87.4918 344.069 85.0799C345.867 79.0682 348.887 73.9204 355.18 71.6885C361.725 69.3486 369.852 69.7446 374.563 75.0003C377.188 77.9162 378.554 81.4081 379.417 85.1879C379.561 85.9079 380.28 86.5199 380.748 87.2038C381.215 86.5919 381.898 86.0519 382.114 85.4039C383.948 79.5722 386.681 74.4604 392.686 71.9765C399.267 69.2766 408.221 69.6726 413.147 75.1803C416.6 79.0322 418.218 83.676 418.398 88.6798C418.757 97.6434 418.613 106.643 418.685 115.643C418.685 119.423 418.685 123.238 418.685 127.198L418.541 127.09Z" fill="#2F332C"/>
<path d="M302.859 93.2153C303.47 85.4396 298.436 79.8959 290.525 79.6079C286.39 79.4639 282.398 80.0399 279.126 82.9197C277.004 84.7917 276.069 87.2396 275.458 89.9395C275.35 90.5154 274.775 91.3794 274.379 91.3794C271.071 91.4874 267.727 91.4514 264.203 91.4514C264.454 86.4116 266.072 82.1638 269.093 78.4559C272.437 74.3881 276.788 72.0122 281.895 71.0042C288.188 69.7803 294.409 69.9603 300.414 72.3362C309.26 75.864 314.618 83.9277 314.69 93.7193C314.726 100.667 314.69 107.651 314.69 114.598V117.154C316.74 117.154 318.681 117.226 320.587 117.154C322.17 117.082 322.853 117.586 322.745 119.278C322.637 121.366 322.673 123.49 322.745 125.578C322.781 126.874 322.277 127.306 321.019 127.27C318.322 127.198 315.625 127.126 312.964 127.27C306.815 127.63 304.046 123.454 305.197 117.298C305.52 115.606 306.132 113.914 306.599 112.223C304.765 111.647 303.866 111.899 303.219 113.77C300.881 120.97 296.35 126.118 288.655 127.702C283.261 128.818 277.831 128.746 272.545 127.054C265.929 124.93 262.62 117.514 262.872 111.215C263.196 101.675 269.489 97.3911 277.22 96.1672C284.771 94.9792 292.431 94.4033 300.054 93.5753C300.953 93.4673 301.852 93.3593 302.859 93.2513V93.2153ZM303.039 100.775C300.198 101.099 297.645 101.315 295.128 101.639C289.95 102.287 284.735 102.863 279.593 103.763C276.285 104.339 274.559 106.283 274.343 109.055C274.091 112.439 274.631 115.642 277.975 117.334C284.268 120.466 290.237 119.062 295.739 115.354C300.666 112.043 302.967 107.147 303.039 100.811V100.775Z" fill="#2F332C"/>
<path d="M471.726 112.007C470.359 111.683 469.352 111.647 468.705 113.663C465.828 122.95 459.068 128.17 449.323 128.242C445.511 128.242 441.555 127.882 437.923 126.874C431.343 125.074 428.178 117.371 428.358 111.251C428.646 101.675 435.119 97.3555 442.634 96.1676C450.186 94.9796 457.845 94.4036 465.469 93.5757C466.439 93.4677 467.41 93.3597 468.345 93.2517C469.28 85.98 463.958 79.9322 456.155 79.6802C453.53 79.6082 450.761 80.0402 448.244 80.7962C444.037 82.0921 441.771 85.332 441.088 89.6158C440.872 90.9838 440.441 91.5598 439.002 91.5238C435.946 91.4158 432.889 91.5238 429.617 91.5238C430.012 86.16 431.738 81.6602 435.119 77.8803C438.427 74.1725 442.634 71.9765 447.453 71.0766C453.746 69.8526 459.967 70.0326 466.008 72.4805C474.818 76.0084 480.104 83.9641 480.176 93.7197C480.212 100.955 480.212 108.155 480.176 115.391C480.176 116.903 480.608 117.371 482.082 117.299C483.592 117.191 485.103 117.299 486.613 117.299C487.728 117.299 488.339 117.623 488.339 118.883C488.339 121.259 488.339 123.598 488.339 125.974C488.339 127.126 487.8 127.414 486.757 127.414C483.484 127.378 480.212 127.45 476.904 127.378C473.272 127.27 470.611 124.786 470.683 121.151C470.719 118.271 471.366 115.391 471.798 112.223L471.726 112.007ZM449.862 119.099C459.679 118.847 467.374 112.331 468.489 103.151C468.777 100.919 468.633 100.739 466.404 100.991C460.039 101.711 453.638 102.359 447.309 103.223C444.684 103.583 441.879 104.123 440.477 106.859C438.319 111.143 440.549 116.579 445.079 118.091C446.59 118.595 448.244 118.775 449.826 119.099H449.862Z" fill="#2F332C"/>
<path d="M217.743 45.1938C224.143 45.1938 230.221 45.0858 236.298 45.2657C238.527 45.3377 240.217 46.7777 240.793 49.0816C241.08 50.2695 241.224 51.5295 241.224 52.7894C241.224 73.5246 241.26 94.2598 241.224 114.995C241.224 116.723 241.692 117.263 243.418 117.191C247.158 117.083 250.897 117.191 254.637 117.119C256.112 117.119 256.759 117.479 256.687 119.099C256.543 121.691 256.687 124.319 256.687 127.09C255.896 127.126 255.249 127.198 254.637 127.198C241.872 127.198 229.07 127.198 216.304 127.234C214.542 127.234 214.003 126.694 214.111 125.003C214.254 123.059 214.183 121.079 214.111 119.099C214.075 117.659 214.578 117.119 216.052 117.119C219.972 117.191 223.928 117.083 227.847 117.155C229.322 117.155 229.753 116.723 229.753 115.247C229.717 95.8077 229.717 76.4045 229.753 56.9653C229.753 55.4533 229.286 54.8774 227.739 54.9134C224.935 55.0214 222.094 54.9854 219.289 54.9134C218.785 54.9134 217.922 54.2654 217.922 53.8694C217.814 51.0615 217.85 48.2536 217.85 45.1938H217.743Z" fill="#2F332C"/>
<path d="M156.971 85.224C156.971 73.7405 157.007 62.257 156.935 50.7734C156.935 48.8655 157.51 48.2535 159.38 48.3615C162.005 48.5055 164.63 48.4695 167.255 48.3615C168.514 48.3255 169.017 48.7215 169.017 50.0175C169.017 67.8007 169.017 85.584 169.017 103.367C169.017 107.183 168.945 110.963 168.765 114.779C168.694 116.471 169.377 116.867 170.923 116.867C182.646 116.795 194.369 116.867 206.128 116.795C207.89 116.795 208.429 117.299 208.321 119.027C208.177 121.259 208.249 123.49 208.321 125.722C208.321 126.802 207.926 127.234 206.811 127.234C192.463 127.234 178.115 127.234 163.767 127.162C159.632 127.162 157.043 123.994 157.043 119.495C157.043 108.083 157.043 96.6716 157.043 85.224H156.971Z" fill="#2F332C"/>
<path d="M497.473 126.478V124.174C497.473 99.4792 497.473 74.7842 497.437 50.0892C497.437 48.1813 497.977 47.8213 499.775 47.8213C517.215 47.8933 534.691 47.8933 552.132 47.8213C553.966 47.8213 554.577 48.2893 554.505 50.1252C554.361 53.797 554.397 57.4689 554.505 61.1407C554.541 62.7607 554.038 63.2647 552.384 63.2647C540.805 63.1927 529.262 63.2647 517.683 63.1927C515.813 63.1927 515.309 63.7686 515.345 65.5686C515.417 71.0403 515.417 76.5121 515.273 82.0199C515.237 83.7118 515.741 84.1438 517.395 84.1078C527.931 83.9998 538.467 84.0358 548.967 83.8918C551.125 83.8918 551.7 84.5758 551.628 86.6277C551.485 89.9396 551.521 93.2874 551.628 96.5993C551.664 98.3272 551.053 98.8672 549.327 98.8672C539.007 98.8672 528.686 98.9392 518.366 98.9752C515.381 98.9752 515.417 98.9752 515.381 101.963C515.381 109.379 515.273 116.794 515.381 124.246C515.381 126.118 514.806 126.586 513.008 126.55C507.973 126.442 502.903 126.514 497.509 126.514L497.473 126.478Z" fill="#2F332C"/>
<path d="M732.937 98.0752C732.829 81.0479 744.588 70.7164 760.194 69.3844C767.422 68.7724 774.434 69.4564 781.015 72.7683C789.645 77.1241 794.392 84.2158 795.615 93.7914C796.226 98.7592 795.974 103.619 794.464 108.371C791.659 117.334 785.438 123.022 776.664 125.758C767.89 128.494 759.044 128.35 750.413 125.146C739.626 121.15 733.189 111.503 732.973 99.3352C732.973 98.9032 732.973 98.5072 732.973 98.0752H732.937ZM750.018 98.3632C749.514 107.471 756.275 112.907 764.51 112.763C773.392 112.619 778.858 107.219 778.858 98.3272C778.858 89.4356 773.32 83.8558 764.438 83.9638C755.484 84.0358 749.586 89.2916 749.982 98.3632H750.018Z" fill="#2F332C"/>
<path d="M591.472 127.631C585.646 127.631 580.036 126.551 574.822 123.851C566.372 119.459 561.625 112.403 560.51 103.008C559.252 92.4239 561.517 82.9923 570.147 75.9006C574.606 72.2288 579.857 70.3209 585.502 69.6009C592.874 68.6289 600.174 69.0969 607.078 72.1928C615.457 75.9006 620.815 82.3084 622.469 91.308C624.267 101.1 623.188 110.423 616.14 118.199C611.106 123.779 604.561 126.335 597.297 127.307C595.391 127.559 593.449 127.559 591.508 127.667L591.472 127.631ZM577.268 98.2197C577.268 107.255 582.59 112.727 591.472 112.727C600.713 112.727 606.215 107.327 606.215 98.2557C606.215 89.5081 600.713 84.0003 591.903 83.9283C582.733 83.8563 577.303 89.1841 577.303 98.2197H577.268Z" fill="#2F332C"/>
<path d="M629.589 44.5094C637.536 44.5094 644.872 44.4014 652.207 44.5094C656.918 44.5814 659.615 47.6772 659.651 52.681C659.651 71.4003 659.651 90.1195 659.651 108.839C659.651 110.687 660.55 111.611 662.348 111.611C666.088 111.611 669.828 111.647 673.567 111.611C674.97 111.611 675.509 112.007 675.473 113.483C675.365 117.694 675.473 121.906 675.473 126.334C674.61 126.37 673.927 126.442 673.28 126.442C658.752 126.442 644.188 126.442 629.661 126.478C627.791 126.478 627.287 125.938 627.323 124.138C627.431 120.61 627.395 117.082 627.323 113.519C627.323 112.079 627.827 111.575 629.265 111.575C633.149 111.647 637.032 111.575 640.88 111.611C642.39 111.611 642.93 111.215 642.93 109.595C642.894 93.5034 642.894 77.412 642.93 61.3207C642.93 59.8087 642.534 59.2328 640.952 59.2688C637.788 59.3768 634.587 59.2688 631.387 59.2688C630.416 59.2688 629.553 59.1248 629.553 57.8648C629.553 53.437 629.553 49.0452 629.553 44.4014L629.589 44.5094Z" fill="#2F332C"/>
<path d="M729.233 111.791V126.37H682.522V111.791C683.277 111.755 684.032 111.647 684.751 111.647C688.563 111.647 692.375 111.647 696.186 111.647C697.373 111.647 697.984 111.359 697.984 110.027C697.948 102.179 697.984 94.3676 697.984 86.5199C697.984 85.2959 697.481 84.9719 696.366 85.0079C693.13 85.0799 689.857 84.9719 686.621 85.1159C685.254 85.1879 684.715 84.8999 684.715 83.496C684.751 79.7521 684.751 76.0083 684.715 72.2645C684.715 71.0045 685.183 70.6085 686.441 70.6085C692.518 70.5365 698.596 70.2485 704.709 70.2485C710.894 70.2485 713.842 73.2004 713.842 79.5362C713.842 89.3638 713.771 99.2274 713.591 109.055C713.555 111.179 714.13 111.827 716.252 111.719C719.848 111.539 723.444 111.647 727.04 111.683C727.795 111.683 728.514 111.755 729.269 111.827L729.233 111.791Z" fill="#2F332C"/>
<path d="M704.529 64.2366C696.906 64.1646 692.554 58.9808 694.532 52.3211C695.719 48.2892 699.854 45.7693 704.889 46.1293C706.327 46.2373 707.801 46.4173 709.168 46.8853C713.267 48.2892 715.497 51.6731 715.137 55.5609C714.742 60.0607 712.188 63.0126 707.837 63.8766C706.758 64.0926 705.644 64.1286 704.565 64.2366H704.529Z" fill="#2F332C"/>
</svg>
