<svg xmlns="http://www.w3.org/2000/svg" width="260" height="260" fill="none">
  <style>
    path {
      fill: #2F332C;
    }

    @media (prefers-color-scheme: dark) {
      path {
        fill: #23E895;
      }
    }
  </style>
  <g transform="translate(21.8 9.66) scale(1.11675)">
    <path d="M13.35 6.44 28.9 28a3.66 3.66 0 0 0 4.6 1.2c3.98-1.95 12.27-5.25 24.5-6.64a3.7 3.7 0 0 0 2.38-6.15C56.33 11.84 48.9 5.73 36.68 2.83 27 .49 20.3.29 16.01.61c-2.86.2-4.33 3.53-2.66 5.83Z"/>
    <path d="M192.9 88.44c.31 9.13-7.82 11.5-18.94 10.51h-.31c-.68-.11-1.31-.2-2.03-.23-.24 0-.4 0-.6-.08-17.1-1.95-36.5-1.95-54.96 2.81-38.26 9.89-68.86 33.26-81.52 44.1a8.27 8.27 0 0 1-11.79-1.07l-20-24.6a8.26 8.26 0 0 1 1.66-12.03C19.06 97.67 54 75.41 89.6 68a85.48 85.48 0 0 1 15.67-1.67 10.24 10.24 0 0 0 12.3 5.48 10.32 10.32 0 0 0 6.48-13.1 10.32 10.32 0 0 0-12.9-6.83 9.88 9.88 0 0 0-6.07 5.6c-3.1-.2-6.08-.24-8.93-.16-25.72.8-56.12 17.62-68.63 25.24a7.33 7.33 0 0 1-9.92-2.14L4.97 62.08a7.31 7.31 0 0 1 2.7-10.67C18.62 45.69 41.6 35.53 73.3 30.65c26.68-4.05 60.85 8.34 77.2 15.28 0 0 .16.08.48.2 4.32 1.59 37.3 14.45 41.47 38.38.28 1.3.4 2.62.44 3.97z"/>
    <path d="M16.28 185.32a8.32 8.32 0 0 1 1.07-11.6c13.73-11.5 47.2-38.69 70.33-50.08a207.6 207.6 0 0 1 30.52-11.86c3.14-.96 6.51.04 8.65 2.54l14.13 16.47a8.26 8.26 0 0 1-3.01 12.97c-10.36 4.45-27.43 13.86-48.7 33.18a5115.28 5115.28 0 0 0-39.18 35.88 8.26 8.26 0 0 1-12.02-.83l-21.83-26.63Z"/>
  </g>
</svg>
